<svg class="h-5 w-5" id="Layer_1" enable-background="new 0 0 512 512" height="512" viewBox="0 0 512 512" width="512" xmlns="http://www.w3.org/2000/svg"><path d="m301.484 158.085h-285.609c-8.731 0-15.875 7.154-15.875 15.899v227.346c0 8.742 7.144 15.897 15.875 15.897h52.119v62.736c0 8.742 5.053 10.835 11.225 4.656l67.306-67.393h218.644c8.729 0 15.876-7.155 15.876-15.897v-166.185c-38.775-8.765-69.595-38.749-79.561-77.059z" fill="#fda613"/><path d="m32.451 401.33v-227.346c0-8.745 7.145-15.899 15.875-15.899h-32.451c-8.731 0-15.875 7.154-15.875 15.899v227.346c0 8.742 7.144 15.897 15.875 15.897h32.451c-8.73 0-15.875-7.155-15.875-15.897z" fill="#fa8701"/><g fill="#a64b30"><path d="m300.932 249.192h-220.818c-4.143 0-7.5-3.357-7.5-7.5s3.357-7.5 7.5-7.5h220.817c4.143 0 7.5 3.357 7.5 7.5.001 4.143-3.357 7.5-7.499 7.5z"/><path d="m300.932 295.739h-220.818c-4.143 0-7.5-3.357-7.5-7.5s3.357-7.5 7.5-7.5h220.817c4.143 0 7.5 3.357 7.5 7.5.001 4.143-3.357 7.5-7.499 7.5z"/><path d="m196.669 342.291h-116.555c-4.143 0-7.5-3.357-7.5-7.5s3.357-7.5 7.5-7.5h116.555c4.143 0 7.5 3.357 7.5 7.5 0 4.142-3.358 7.5-7.5 7.5z"/></g><path d="m0 107.937c0 2.833 2.318 5.151 5.15 5.151h204.13c2.833 0 5.151-2.318 5.151-5.151v-61.243c0-2.833-2.318-5.151-5.151-5.151h-204.13c-2.832 0-5.15 2.318-5.15 5.151z" fill="#0592fb"/><path d="m32.297 107.937v-24.138c-2.235-1.299-3.742-3.713-3.742-6.484s1.507-5.186 3.742-6.484v-24.137c0-2.833 2.317-5.151 5.15-5.151h-32.297c-2.832 0-5.15 2.318-5.15 5.151v61.243c0 2.833 2.318 5.151 5.15 5.151h32.297c-2.833.001-5.15-2.318-5.15-5.151z" fill="#0181fb"/><path d="m171.792 84.814h-135.737c-4.143 0-7.5-3.357-7.5-7.5s3.357-7.5 7.5-7.5h135.737c4.143 0 7.5 3.357 7.5 7.5s-3.357 7.5-7.5 7.5z" fill="#62dafa"/><circle cx="404.534" cy="131.295" fill="#fd646f" r="107.466"/><path d="m329.143 131.295c0-53.9 39.684-98.531 91.43-106.273-5.232-.783-10.586-1.192-16.037-1.192-59.354 0-107.467 48.114-107.467 107.466 0 59.351 48.113 107.467 107.467 107.467 5.451 0 10.805-.409 16.037-1.192-51.746-7.744-91.43-52.376-91.43-106.276z" fill="#fc4755"/><path d="m440.972 183.759c-1.908 0-3.817-.724-5.28-2.174-17.18-17.029-45.135-17.029-62.314 0-2.943 2.918-7.692 2.896-10.607-.046-2.916-2.942-2.896-7.691.046-10.606 23.004-22.803 60.432-22.803 83.436 0 2.941 2.915 2.962 7.664.046 10.606-1.467 1.478-3.397 2.22-5.327 2.22z" fill="#a62b2b"/><path d="m360.285 129.793c-14.301 0-25.936-11.524-25.936-25.688 0-4.143 3.357-7.5 7.5-7.5s7.5 3.357 7.5 7.5c0 5.894 4.905 10.688 10.936 10.688 6.03 0 10.937-4.794 10.937-10.688 0-4.143 3.357-7.5 7.5-7.5s7.5 3.357 7.5 7.5c0 14.164-11.635 25.688-25.937 25.688z" fill="#a62b2b"/><path d="m448.783 129.793c-14.303 0-25.939-11.524-25.939-25.688 0-4.143 3.357-7.5 7.5-7.5s7.5 3.357 7.5 7.5c0 5.894 4.907 10.688 10.939 10.688 6.03 0 10.936-4.794 10.936-10.688 0-4.143 3.357-7.5 7.5-7.5 4.142 0 7.5 3.357 7.5 7.5 0 14.164-11.635 25.688-25.936 25.688z" fill="#a62b2b"/></svg>