<svg class="h-5 w-5" clip-rule="evenodd" fill-rule="evenodd" height="512" image-rendering="optimizeQuality" shape-rendering="geometricPrecision" text-rendering="geometricPrecision" viewBox="0 0 512 512" width="512" xmlns="http://www.w3.org/2000/svg"><g id="Layer_x0020_1"><path d="m411.704 511.897h-271.008c-36.0792 0-65.4309-29.3517-65.4309-65.4297v-26.2064h-11.2949c-16.0465 0-29.1013-13.0548-29.1013-29.1013 0-16.0453 13.0548-29.1001 29.1013-29.1001h11.2949v-76.9585h-11.2949c-16.0465 0-29.1013-13.0559-29.1013-29.1013 0-16.0465 13.0548-29.1013 29.1013-29.1013h11.2949v-76.9585h-11.2949c-16.0465 0-29.1013-13.0548-29.1013-29.1001 0-16.0477 13.0548-29.1013 29.1013-29.1013h11.2949v-26.204c0-36.0792 29.3517-65.4309 65.4309-65.4309h271.007c36.0781 0 65.4285 29.3517 65.4285 65.4309v380.933c.00118111 36.0781-29.3505 65.4297-65.4274 65.4297zm-5.26301-60.0994h-178.178c-11.8441 0-11.8441-17.993 0-17.993h178.178c11.8441 0 11.8441 17.993 0 17.993zm0-43.734h-178.178c-11.8441 0-11.8453-17.993 0-17.993h178.178c11.8441 0 11.8441 17.993 0 17.993zm0-43.7352h-178.178c-11.8441 0-11.8441-17.993 0-17.993h178.178c11.8429 0 11.8465 17.993 0 17.993zm1.0252-43.8108h-180.589c-4.96891 0-8.99648-4.02757-8.99648-8.99648v-39.5056c0-34.9749 23.693-65.5242 57.6155-74.2927 3.06379-.791341 6.32246.0850396 8.57601 2.31261 18.352 18.1406 47.8454 18.1418 66.1974-.00118111 2.25237-2.22757 5.51222-3.10395 8.57483-2.31261 33.9249 8.76735 57.6179 39.3178 57.6179 74.2939v39.5056c0 4.96891-4.02757 8.99648-8.99648 8.99648zm-171.592-17.993h162.597v-30.508c0-25.1859-16.0583-47.3765-39.5919-55.5073-24.0839 20.1697-59.3317 20.1686-83.4144.00118111-23.5324 8.1331-39.5907 30.3225-39.5907 55.5061v30.508zm81.2967-112.164c-35.8844 0-65.0801-29.1946-65.0801-65.0801 0-35.8844 29.1958-65.0789 65.0801-65.0789 35.8844 0 65.0801 29.1946 65.0801 65.0789 0 35.8855-29.1946 65.0801-65.0801 65.0801zm0-112.167c-25.9654 0-47.0872 21.1241-47.0872 47.0872 0 25.9643 21.1229 47.0872 47.0872 47.0872 25.9631 0 47.086-21.1229 47.086-47.0872 0-25.9631-21.1229-47.0872-47.086-47.0872zm-233.026 324.075h20.4131c14.615 0 14.6185-22.2166 0-22.2166h-40.5875c-14.6221 0-14.6185 22.2166 0 22.2166h20.1745zm9.11341 17.9918v26.2064c0 26.1568 21.2812 47.4368 47.4379 47.4368h16.5142v-475.807h-16.5142c-26.158 0-47.4379 21.28-47.4379 47.4379v26.204h11.2996c16.0453 0 29.0989 13.0536 29.0989 29.0989-.00118111 16.0477-13.0548 29.1025-29.0989 29.1025h-11.2996v76.9585h11.2996c16.0453 0 29.0989 13.0548 29.0989 29.1001-.00118111 16.0477-13.0548 29.1025-29.0989 29.1025h-11.2996v76.9585h11.2996c16.0453 0 29.0989 13.0548 29.0989 29.1001-.00118111 16.0465-13.0548 29.1013-29.0989 29.1013h-11.2996zm-29.2879-175.369c-14.6221 0-14.6185 22.2166 0 22.2166h40.5875c14.6162 0 14.6185-22.2166 0-22.2166zm0-135.16c-14.6221 0-14.6185 22.2166 0 22.2166l40.5875-.00118111c14.6174 0 14.6174-22.2154 0-22.2154h-40.5875zm111.233 384.172h236.5c26.1568 0 47.4368-21.28 47.4368-47.4368v-380.933c0-26.158-21.28-47.4379-47.4368-47.4379h-236.5v475.807z"/><path d="m317.171 172.368c25.9631 0 47.086-21.1229 47.086-47.0872 0-25.9631-21.1229-47.0872-47.086-47.0872-25.9654 0-47.0872 21.1241-47.0872 47.0872 0 25.9643 21.1229 47.0872 47.0872 47.0872z" fill="#f69e07"/><path d="m358.879 216.51c-24.0839 20.1697-59.3317 20.1686-83.4144.00118111-23.5324 8.1331-39.5907 30.3225-39.5907 55.5061v30.508h162.597v-30.508c0-25.1859-16.0583-47.3765-39.5919-55.5073z" fill="#f69e07"/><path d="m217.881 272.016c0-34.9749 23.693-65.5242 57.6155-74.2927 3.06379-.791341 6.32246.0850396 8.57601 2.31261 18.352 18.1406 47.8454 18.1418 66.1974-.00118111 2.25237-2.22757 5.51222-3.10395 8.57483-2.31261 33.9249 8.76735 57.6179 39.3178 57.6179 74.2939v39.5056c0 4.96891-4.02757 8.99648-8.99648 8.99648h-180.589c-4.96891 0-8.99648-4.02757-8.99648-8.99648v-39.5056zm10.3819 74.3199h178.178c11.8429 0 11.8465 17.993 0 17.993h-178.178c-11.8441 0-11.8441-17.993 0-17.993zm0 43.7352h178.178c11.8441 0 11.8441 17.993 0 17.993h-178.178c-11.8441 0-11.8453-17.993 0-17.993zm0 43.734h178.178c11.8441 0 11.8441 17.993 0 17.993h-178.178c-11.8441 0-11.8441-17.993 0-17.993zm-53.06 60.0994h236.5c26.1568 0 47.4368-21.28 47.4368-47.4368v-380.933c0-26.158-21.28-47.4379-47.4368-47.4379h-236.5v475.807zm141.968-303.543c-35.8844 0-65.0801-29.1946-65.0801-65.0801 0-35.8844 29.1958-65.0789 65.0801-65.0789 35.8844 0 65.0801 29.1946 65.0801 65.0789 0 35.8855-29.1946 65.0801-65.0801 65.0801z" fill="#48e1ff"/><path d="m157.21 493.904v-475.807h-16.5142c-26.158 0-47.4379 21.28-47.4379 47.4379v26.204h11.2996c16.0453 0 29.0989 13.0536 29.0989 29.0989-.00118111 16.0477-13.0548 29.1025-29.0989 29.1025h-11.2996v76.9585h11.2996c16.0453 0 29.0989 13.0548 29.0989 29.1001-.00118111 16.0477-13.0548 29.1025-29.0989 29.1025h-11.2996v76.9585h11.2996c16.0453 0 29.0989 13.0548 29.0989 29.1001-.00118111 16.0465-13.0548 29.1013-29.0989 29.1013h-11.2996v26.2064c0 26.1568 21.2812 47.4368 47.4379 47.4368h16.5142z" fill="#48e1ff"/><g fill="#f69e07"><path d="m104.557 380.053h-40.5875c-14.6221 0-14.6185 22.2166 0 22.2166h20.1745 20.4131c14.615 0 14.6185-22.2166 0-22.2166z"/><path d="m63.9699 267.108h40.5875c14.6162 0 14.6185-22.2166 0-22.2166h-40.5875c-14.6221 0-14.6185 22.2166 0 22.2166z"/><path d="m63.9699 131.948 40.5875-.00118111c14.6174 0 14.6174-22.2154 0-22.2154h-40.5875c-14.6221 0-14.6185 22.2166 0 22.2166z"/></g></g></svg>