<svg class="h-5 w-5" id="Capa_1" enable-background="new 0 0 425.2 425.2" height="512" viewBox="0 0 425.2 425.2" width="512" xmlns="http://www.w3.org/2000/svg"><g><g><g><g><circle cx="136.7" cy="136.7" fill="#f8bf52" r="136.7"/><circle cx="136.7" cy="136.7" fill="#be7800" r="105.4"/><circle cx="136.7" cy="136.7" fill="#be7800" r="105.4"/><path d="m41.41 150.27c0-58.21 47.19-105.4 105.4-105.4 31.59 0 59.93 13.9 79.25 35.92-18.64-29.72-51.69-49.49-89.36-49.49-58.21 0-105.4 47.19-105.4 105.4 0 26.62 9.87 50.92 26.15 69.47-10.16-16.2-16.04-35.37-16.04-55.9z" fill="#a36804"/><path d="m179.56 164.31c.85-20.27-16.27-29.5-32.76-36.04v-40.3c8.34 1.49 16.61 5.22 23.09 8.72 5.34-.84 4.47-16.29.33-18.55-6.68-4.27-14.91-6.87-23.42-7.71v-14.54c0-3.1-2.54-5.64-5.64-5.64h-5.04c-3.1 0-5.64 2.54-5.64 5.64v15.09c-8.52 1.45-16.49 4.77-22.56 10.06-14.1 12-14.8 36.51-1.48 48.86 5.55 6.54 14.86 9.87 24.04 13.2v42.22c-10.61-.7-21.79-4.73-28.41-9.66-6.61-5.04-8.47 1.61-8.13 7.33-1.92 12.26 16.37 20.23 36.54 20.27v14.24c0 3.1 2.54 5.64 5.64 5.64h5.04c3.1 0 5.64-2.54 5.64-5.64v-16c18.07-4.09 33.61-15.57 32.76-37.19zm-55.85-71.98c2.12-1.62 4.39-2.8 6.77-3.61v33.04c-11.03-6.31-18.05-18.83-6.77-29.43zm23.09 90.61v-32.68c5.75 3.57 9.96 8.34 10.85 15.79-.42 8.81-4.72 14.11-10.85 16.89z" fill="#f8bf52"/></g><g fill="#fff"><path d="m61.66 40.24c-.92-1.11-2.28-1.75-3.72-1.75-1.11 0-2.21.39-3.07 1.11-.01 0-.01.01-.01.01-2.04 1.7-2.33 4.74-.64 6.78.92 1.11 2.28 1.75 3.72 1.75 1.12 0 2.21-.39 3.07-1.11.99-.82 1.61-1.98 1.73-3.27.12-1.28-.26-2.53-1.08-3.52z"/><path d="m46.32 54.25c-.87-.73-1.97-1.13-3.09-1.13-1.43 0-2.78.63-3.7 1.73-4.6 5.51-8.73 11.49-12.28 17.77-.01.01-.02.03-.02.04-10.74 19.04-16.19 40.59-16.19 64.03 0 2.66 2.16 4.82 4.82 4.82s4.82-2.16 4.82-4.82c0-21.76 5.03-41.71 14.95-59.29v-.01c3.27-5.78 7.06-11.29 11.3-16.35.83-.98 1.22-2.24 1.11-3.52-.13-1.28-.73-2.44-1.72-3.27z"/></g></g><g><g><g><circle cx="288.5" cy="288.5" fill="#eb7b3a" r="136.7"/><circle cx="288.5" cy="288.5" fill="#be7800" r="105.4"/><circle cx="288.5" cy="288.5" fill="#722213" r="105.4"/><path d="m193.21 302.07c0-58.21 47.19-105.4 105.4-105.4 31.59 0 59.93 13.9 79.25 35.92-18.64-29.72-51.68-49.49-89.35-49.49-58.21 0-105.4 47.19-105.4 105.4 0 26.62 9.87 50.92 26.15 69.47-10.17-16.2-16.05-35.36-16.05-55.9z" fill="#5e1806"/></g><g fill="#fff"><path d="m213.47 192.04c-.92-1.11-2.28-1.75-3.72-1.75-1.11 0-2.21.39-3.07 1.11-.01 0-.01.01-.01.01-2.04 1.7-2.33 4.74-.64 6.78.92 1.11 2.28 1.75 3.72 1.75 1.12 0 2.21-.39 3.07-1.11.99-.82 1.61-1.98 1.73-3.27.12-1.27-.27-2.53-1.08-3.52z"/><path d="m198.13 206.06c-.87-.73-1.97-1.13-3.09-1.13-1.43 0-2.78.63-3.7 1.73-4.6 5.51-8.73 11.49-12.28 17.77-.01.01-.02.03-.02.04-10.74 19.04-16.19 40.59-16.19 64.03 0 2.66 2.16 4.82 4.82 4.82s4.82-2.16 4.82-4.82c0-21.76 5.03-41.71 14.95-59.29v-.01c3.27-5.78 7.06-11.29 11.3-16.35.83-.98 1.22-2.24 1.11-3.52-.13-1.28-.73-2.45-1.72-3.27z"/></g></g><path d="m339.81 224.87c.08-4.62-5.97-3.08-9.97-3.53-4.1.26-8.94-.56-10.25 3.86-7.78 16.28-24.3 49.52-30.47 66h-.22c-3.68-8.33-7.27-17.07-11.07-25.12 0 0-19.72-40.99-19.72-40.99-1.15-2.75-3.23-3.23-6.22-3.53-5.48-.13-19.27-2.36-13.17 7.16l34.84 69.49h-17.45c-3.65 0-6.64 2.99-6.64 6.64v5.94c0 3.65 2.99 6.64 6.64 6.64h22.93v8.54h-22.93c-3.65 0-6.64 2.99-6.64 6.64v5.94c0 3.65 2.99 6.64 6.64 6.64h22.93v16.53c.34 5.04 15.82 4.28 18.51 1.54.29-.44.44-.95.44-1.54 0 0 0-9.4 0-16.53h22.9c3.65 0 6.64-2.99 6.64-6.64v-5.94c0-3.65-2.99-6.64-6.64-6.64h-22.89c0-3.71 0-6.27 0-8.54h22.9c3.65 0 6.64-2.99 6.64-6.64v-5.94c0-3.65-2.99-6.64-6.64-6.64h-17.41l34.84-69.49c.8-1.61 1.29-2.9 1.48-3.85z" fill="#eb7b3a"/></g></g><g><path d="m161.27 381.08-76.42-44.12v22.85c-22.1 0-78.43-7.45-83.85-82.72 0 0-16.4 125.75 83.85 132.72v15.4z" fill="#94bf3d"/><path d="m84.84 385.38v-25.58c-22.1 0-78.43-7.45-83.85-82.72.6 100.75 83.85 108.3 83.85 108.3z" fill="#7fa737"/></g><g><path d="m263.93 44.12 76.42 44.12v-22.84c22.1 0 78.43 7.45 83.85 82.72 0 0 16.4-125.75-83.85-132.72v-15.4z" fill="#94bf3d"/><path d="m340.36 39.82v25.58c22.1 0 78.43 7.45 83.85 82.72-.6-100.75-83.85-108.3-83.85-108.3z" fill="#7fa737"/></g></g></svg>