<svg class="h-5 w-5" height="512" viewBox="0 0 32 32" width="512" xmlns="http://www.w3.org/2000/svg"><g id="Checklist"><path d="m6 8h25l-4 14h-19z" fill="#4294ff"/><circle cx="18" cy="8" fill="#e6ecff" r="7"/><circle cx="8.5" cy="28.5" fill="#4294ff" r="2.5"/><circle cx="22.5" cy="28.5" fill="#4294ff" r="2.5"/><g fill="#232328"><path d="m3 23h24a1 1 0 0 0 .961-.726l4-14a1 1 0 0 0 -.961-1.274h-5.069a7.993 7.993 0 0 0 -15.862 0h-3.2l-.879-6.142a1 1 0 0 0 -.99-.858h-4a1 1 0 0 0 0 2h3.133l2.714 19h-3.847a3 3 0 0 0 0 6h2.351a3.464 3.464 0 0 0 -.351 1.5 3.5 3.5 0 0 0 7 0 3.464 3.464 0 0 0 -.351-1.5h7.7a3.464 3.464 0 0 0 -.349 1.5 3.5 3.5 0 0 0 7 0 3.464 3.464 0 0 0 -.351-1.5h4.351a1 1 0 0 0 0-2h-27a1 1 0 0 1 0-2zm15-21a6 6 0 1 1 -6 6 6.006 6.006 0 0 1 6-6zm-10.847 7h2.916a7.993 7.993 0 0 0 15.862 0h3.743l-3.428 12h-17.379zm2.847 19.5a1.5 1.5 0 1 1 -1.5-1.5 1.5 1.5 0 0 1 1.5 1.5zm14 0a1.5 1.5 0 1 1 -1.5-1.5 1.5 1.5 0 0 1 1.5 1.5z"/><path d="m16.293 10.707a1 1 0 0 0 1.414 0l4-4a1 1 0 1 0 -1.414-1.414l-3.293 3.293-1.293-1.293a1 1 0 1 0 -1.414 1.414z"/></g></g></svg>