<svg class="h-5 w-5" id="Layer_1" viewBox="0 0 512 512" xmlns="http://www.w3.org/2000/svg" data-name="Layer 1"><g fill-rule="evenodd"><path d="m415.822 391.8v97.4a6.8 6.8 0 0 1 -6.8 6.8h-330.922a6.8 6.8 0 0 1 -6.8-6.8v-30.969h-29.689a6.8 6.8 0 0 1 -6.8-6.8v-428.631a6.8 6.8 0 0 1 6.8-6.8h251.719a6.778 6.778 0 0 1 4.849 2.033l35.736 35.736h75.1a6.8 6.8 0 0 1 6.8 6.8v113.508a127.267 127.267 0 0 1 0 217.722z"/><path d="m430.316 363.264a113.6 113.6 0 0 0 -80.326-193.924c-74.053 0-125.922 69.177-111.017 137.812a112.767 112.767 0 0 0 7.648 23.014c1.4 3.068 1.222 2.063.18 5.2l-20.094 53.914q31.1-5.236 62.2-10.475a117.3 117.3 0 0 0 30.446 13.577 113.944 113.944 0 0 0 110.963-29.117zm-47.446-106.517a6.8 6.8 0 1 1 -13.6 0 18.833 18.833 0 0 0 -5.906-13.631 21.574 21.574 0 0 0 -29.244 0 18.684 18.684 0 0 0 0 27.261c10.873 10.419 23.7 1.013 38.651 15.342a32.168 32.168 0 0 1 0 46.816 34.515 34.515 0 0 1 -17.225 8.925v7.147a6.8 6.8 0 1 1 -13.6 0v-7.147a34.521 34.521 0 0 1 -17.227-8.925 32.311 32.311 0 0 1 -10.1-23.406 6.8 6.8 0 1 1 13.6 0 18.828 18.828 0 0 0 5.906 13.629 21.574 21.574 0 0 0 29.244 0 18.685 18.685 0 0 0 0-27.262c-10.873-10.42-23.7-1.014-38.65-15.342a32.167 32.167 0 0 1 0-46.816 34.529 34.529 0 0 1 17.227-8.925v-7.145a6.8 6.8 0 1 1 13.6 0v7.146a34.517 34.517 0 0 1 17.225 8.924 32.319 32.319 0 0 1 10.099 23.409z" fill="#fcc16d"/><path d="m379.335 406.735v44.695a6.8 6.8 0 0 1 -6.8 6.8h-287.635v24.17h317.318v-83.445a126.153 126.153 0 0 1 -22.883 7.78z" fill="#ccc"/><path d="m402.218 166.92v-99.548h-54.7l29.825 29.828a6.785 6.785 0 0 1 1.992 4.809v57.131a126.307 126.307 0 0 1 22.883 7.78z" fill="#ccc"/><path d="m365.732 156.7v-47.892h-72.4a6.8 6.8 0 0 1 -6.8-6.8v-72.408h-238.119v415.028h317.319v-35.455a127.948 127.948 0 0 1 -49.992-3.721 126.465 126.465 0 0 1 -29.472-12.436l-60.862 10.249a11.485 11.485 0 0 1 -12.656-15.343l1.98-5.313h-137v-184.823h177.77q2.212-2.454 4.548-4.793a126.8 126.8 0 0 1 89.945-37.257 128.411 128.411 0 0 1 15.742.967zm-281.206-81.194a6.8 6.8 0 0 1 0-13.6h93.785a6.8 6.8 0 1 1 0 13.6zm0 31.805a6.8 6.8 0 0 1 0-13.6h152.234a6.8 6.8 0 1 1 0 13.6zm0 31.8a6.8 6.8 0 0 1 0-13.6h152.234a6.8 6.8 0 1 1 0 13.6z" fill="#f3f5fb"/><path d="m219.8 369.005 10.884-29.201h-98.31v29.201z" fill="#f3f5fb"/><path d="m230.362 326.2a126.141 126.141 0 0 1 -6.8-29.2h-91.188v29.2z" fill="#f3f5fb"/><path d="m222.789 283.4a128.151 128.151 0 0 1 3.26-29.2h-93.675v29.2z" fill="#f3f5fb"/><path d="m230.008 240.59a126.81 126.81 0 0 1 14.8-29.2h-112.434v29.2z" fill="#f3f5fb"/></g><path d="m91.329 339.804h27.442v29.201h-27.442z" fill="#31a7fb"/><path d="m91.329 296.999h27.442v29.201h-27.442z" fill="#31a7fb"/><path d="m91.329 254.194h27.442v29.201h-27.442z" fill="#31a7fb"/><path d="m91.329 211.389h27.442v29.201h-27.442z" fill="#31a7fb"/><path d="m356.115 95.205-55.985-55.984v55.984z" fill="#9c9c9c" fill-rule="evenodd"/></svg>