<svg class="h-5 w-5" viewBox="0 0 32 32" data-name="Layer 1" id="Layer_1" xmlns="http://www.w3.org/2000/svg" fill="#000000"><g id="SVGRepo_bgCarrier" stroke-width="0"></g><g id="SVGRepo_tracerCarrier" stroke-linecap="round" stroke-linejoin="round"></g><g id="SVGRepo_iconCarrier"><defs><style>.cls-1{fill:#c46f0e;}</style></defs><title></title><path class="cls-1" d="M24,10h4a2,2,0,0,0,2-2V4a2,2,0,0,0-2-2H24a2,2,0,0,0-2,2V5H19a2,2,0,0,0-2,2v8H14V12a2,2,0,0,0-2-2H4a2,2,0,0,0-2,2v8a2,2,0,0,0,2,2h8a2,2,0,0,0,2-2V17h3v8a2,2,0,0,0,2,2h3v1a2,2,0,0,0,2,2h4a2,2,0,0,0,2-2V24a2,2,0,0,0-2-2H24a2,2,0,0,0-2,2v1H19V17h3v1a2,2,0,0,0,2,2h4a2,2,0,0,0,2-2V14a2,2,0,0,0-2-2H24a2,2,0,0,0-2,2v1H19V7h3V8A2,2,0,0,0,24,10ZM12,20H4V12h8Zm12,4h4v4H24Zm0-10h4v4H24ZM24,4h4V8H24Z"></path></g></svg>